<svg xmlns="http://www.w3.org/2000/svg" width="61" height="61" fill="none"><g clip-path="url(#a)"><path fill="#8E8D8D" d="M59.725 15.818a7.638 7.638 0 0 0-5.393-5.393C49.575 9.15 30.5 9.15 30.5 9.15s-19.075 0-23.833 1.275a7.64 7.64 0 0 0-5.393 5.393C0 20.575 0 30.5 0 30.5s0 9.926 1.274 14.682a7.64 7.64 0 0 0 5.393 5.393C11.425 51.85 30.5 51.85 30.5 51.85s19.075 0 23.832-1.275a7.639 7.639 0 0 0 5.393-5.393C61 40.426 61 30.5 61 30.5s0-9.925-1.275-14.682Z"/><path fill="#5B5B5B" d="m24.4 39.65 15.847-9.15L24.4 21.35v18.3Z"/></g><defs><clipPath id="a"><path fill="#fff" d="M0 0h61v61H0z"/></clipPath></defs></svg>